<svg width="12" height="12" viewBox="0 0 12 12" fill="none" xmlns="http://www.w3.org/2000/svg">
<g opacity="0.3">
<path d="M11.852 10.4415C11.9467 10.5354 11.9999 10.6633 11.9999 10.7966C11.9999 10.93 11.9467 11.0578 11.852 11.1518L11.1518 11.852C11.0578 11.9467 10.93 11.9999 10.7966 11.9999C10.6633 11.9999 10.5354 11.9467 10.4415 11.852L5.99997 7.41046L1.55844 11.852C1.46452 11.9467 1.33668 11.9999 1.20332 11.9999C1.06995 11.9999 0.942108 11.9467 0.848192 11.852L0.14795 11.1518C0.0532613 11.0578 0 10.93 0 10.7966C0 10.6633 0.0532613 10.5354 0.14795 10.4415L4.58949 5.99997L0.14795 1.55844C0.0532613 1.46452 0 1.33668 0 1.20332C0 1.06995 0.0532613 0.942108 0.14795 0.848192L0.848192 0.14795C0.942108 0.0532613 1.06995 0 1.20332 0C1.33668 0 1.46452 0.0532613 1.55844 0.14795L5.99997 4.58949L10.4415 0.14795C10.5354 0.0532613 10.6633 0 10.7966 0C10.93 0 11.0578 0.0532613 11.1518 0.14795L11.852 0.848192C11.9467 0.942108 11.9999 1.06995 11.9999 1.20332C11.9999 1.33668 11.9467 1.46452 11.852 1.55844L7.41046 5.99997L11.852 10.4415Z" fill="#131A22"/>
</g>
</svg>
