<svg width="132" height="132" viewBox="0 0 132 132" fill="none" xmlns="http://www.w3.org/2000/svg">
<path opacity="0.07" d="M65.9976 132C60.922 132 55.853 130.073 51.9786 126.225L47.1604 121.406C45.2925 119.545 42.791 118.515 40.1377 118.509H33.3593C22.4029 118.509 13.486 109.591 13.486 98.6347V91.8495C13.4794 89.2027 12.4498 86.7011 10.5819 84.82L5.84293 80.0875C-1.91895 72.3715 -1.95195 59.7581 5.77032 51.9893L10.5885 47.1644C12.4498 45.2965 13.4794 42.7949 13.486 40.1415V33.3695C13.486 22.4061 22.4029 13.4889 33.3593 13.4889H40.1443C42.791 13.4889 45.2859 12.4593 47.167 10.5781L51.9126 5.8456C59.6284 -1.91653 72.2348 -1.95613 80.0099 5.77299L84.8281 10.5913C86.7025 12.4593 89.1974 13.4889 91.8441 13.4889H98.6292C109.586 13.4889 118.502 22.4061 118.502 33.3695V40.1481C118.509 42.7949 119.539 45.2965 121.407 47.1776L126.146 51.9167C129.901 55.6526 131.98 60.6293 132 65.9427C132.013 71.2231 129.98 76.1932 126.278 79.9489C126.212 80.0149 126.152 80.0875 126.086 80.1469L121.4 84.8332C119.539 86.7011 118.509 89.2027 118.502 91.8561V98.6347C118.502 109.591 109.586 118.509 98.6292 118.509H91.8441C89.1974 118.515 86.6959 119.545 84.8215 121.413L80.0759 126.152C76.2082 130.046 71.0996 132 65.9976 132Z" fill="#0E4944"/>
<path d="M65.9983 113.997C62.3071 113.997 58.6207 112.595 55.803 109.797L52.299 106.293C50.9406 104.939 49.1214 104.19 47.1918 104.186H42.2622C34.2942 104.186 27.8094 97.7007 27.8094 89.7327V84.7984C27.8046 82.8736 27.0558 81.0544 25.6974 79.6864L22.251 76.2448C16.6062 70.6336 16.5822 61.4607 22.1982 55.8111L25.7022 52.3024C27.0558 50.944 27.8046 49.1248 27.8094 47.1952V42.2704C27.8094 34.2976 34.2942 27.8128 42.2622 27.8128H47.1966C49.1214 27.8128 50.9358 27.064 52.3038 25.696L55.755 22.2544C61.3663 16.6096 70.5343 16.5808 76.1887 22.2016L79.6927 25.7056C81.0559 27.064 82.8703 27.8128 84.7951 27.8128H89.7295C97.6975 27.8128 104.182 34.2976 104.182 42.2704V47.2C104.187 49.1248 104.936 50.944 106.294 52.312L109.741 55.7584C112.472 58.4752 113.984 62.0944 113.998 65.9584C114.008 69.7984 112.529 73.4128 109.837 76.144C109.789 76.192 109.745 76.2448 109.697 76.288L106.289 79.6959C104.936 81.0543 104.187 82.8736 104.182 84.8032V89.7327C104.182 97.7007 97.6975 104.186 89.7295 104.186H84.7951C82.8703 104.19 81.0511 104.939 79.6879 106.298L76.2367 109.744C73.4239 112.576 69.7087 113.997 65.9983 113.997Z" fill="#0E4944"/>
<path d="M61.1862 79.0033C60.2771 79.0033 59.3679 78.6631 58.6739 77.9787L49.0427 68.4816C47.6547 67.1129 47.6547 64.8957 49.0427 63.531C50.4308 62.1622 52.6752 62.1582 54.0633 63.527L61.1862 70.5507L77.9402 54.0298C79.3282 52.6611 81.5726 52.6611 82.9607 54.0298C84.3487 55.3986 84.3487 57.6158 82.9607 58.9845L63.6985 77.9787C63.0045 78.6631 62.0953 79.0033 61.1862 79.0033Z" fill="white"/>
</svg>
